STARTFONT 2.3
FONT -FontForge-Syncopate-Book-R-Normal--11-110-72-72-P-83-ISO10646-1
SIZE 11 72 72  2
FONTBOUNDINGBOX 20 14 -2 -3
COMMENT "Generated by fontforge, http://fontforge.sourceforge.net"
COMMENT "Copyright (c) 2010 by Brian J. Bonislawsky DBA Astigmatic (AOETI). All rights reserved. Available under the Apache 2.0 licence.http://www.apache.org/licenses/LICENSE-2.0.html"
STARTPROPERTIES 40
FOUNDRY "FontForge"
FAMILY_NAME "Syncopate"
WEIGHT_NAME "Book"
SLANT "R"
SETWIDTH_NAME "Normal"
ADD_STYLE_NAME ""
PIXEL_SIZE 11
POINT_SIZE 110
RESOLUTION_X 72
RESOLUTION_Y 72
SPACING "P"
AVERAGE_WIDTH 83
CHARSET_REGISTRY "ISO10646"
CHARSET_ENCODING "1"
FONTNAME_REGISTRY ""
CHARSET_COLLECTIONS "ISO8859-2 ISO8859-9 ISO8859-4 ISO10646-1"
BITS_PER_PIXEL 2
FONT_NAME "Syncopate-Regular"
FACE_NAME "Syncopate Regular"
COPYRIGHT "Copyright (c) 2010 by Brian J. Bonislawsky DBA Astigmatic (AOETI). All rights reserved. Available under the Apache 2.0 licence.http://www.apache.org/licenses/LICENSE-2.0.html"
FONT_VERSION "001.001"
FONT_ASCENT 9
FONT_DESCENT 2
UNDERLINE_POSITION -1
UNDERLINE_THICKNESS 1
X_HEIGHT 7
CAP_HEIGHT 7
RAW_ASCENT 799
RAW_DESCENT 200
NORM_SPACE 4
RELATIVE_WEIGHT 40
RELATIVE_SETWIDTH 70
SUPERSCRIPT_X 0
SUPERSCRIPT_Y 3
SUPERSCRIPT_SIZE 2
SUBSCRIPT_X 0
SUBSCRIPT_Y 3
SUBSCRIPT_SIZE 2
AVG_LOWERCASE_WIDTH 95
AVG_UPPERCASE_WIDTH 90
ENDPROPERTIES
CHARS 370
STARTCHAR space
ENCODING 32
SWIDTH 375 0
DWIDTH 4 0
BBX 1 1 0 0
BITMAP
00
ENDCHAR
STARTCHAR exclam
ENCODING 33
SWIDTH 274 0
DWIDTH 3 0
BBX 1 8 1 0
BITMAP
80
80
80
80
80
40
00
80
ENDCHAR
STARTCHAR quotedbl
ENCODING 34
SWIDTH 290 0
DWIDTH 3 0
BBX 3 2 0 6
BITMAP
88
88
ENDCHAR
STARTCHAR numbersign
ENCODING 35
SWIDTH 701 0
DWIDTH 8 0
BBX 7 8 0 0
BITMAP
0114
0520
2FFC
0820
0810
7FF8
1440
1080
ENDCHAR
STARTCHAR dollar
ENCODING 36
SWIDTH 767 0
DWIDTH 8 0
BBX 7 10 1 -1
BITMAP
0100
6FF0
9100
8100
7A00
06E0
0114
0124
FFE0
0100
ENDCHAR
STARTCHAR percent
ENCODING 37
SWIDTH 992 0
DWIDTH 11 0
BBX 10 8 0 0
BITMAP
2E0240
518500
518800
2E2000
005BD0
014820
020820
080BD0
ENDCHAR
STARTCHAR ampersand
ENCODING 38
SWIDTH 926 0
DWIDTH 10 0
BBX 8 8 1 0
BITMAP
1F90
2060
2080
1D00
5602
8092
D028
6FE6
ENDCHAR
STARTCHAR quotesingle
ENCODING 39
SWIDTH 140 0
DWIDTH 2 0
BBX 1 2 0 6
BITMAP
80
80
ENDCHAR
STARTCHAR parenleft
ENCODING 40
SWIDTH 420 0
DWIDTH 5 0
BBX 3 9 1 -1
BITMAP
14
60
80
80
80
80
80
60
14
ENDCHAR
STARTCHAR parenright
ENCODING 41
SWIDTH 420 0
DWIDTH 5 0
BBX 3 9 1 -1
BITMAP
80
20
14
08
08
08
14
20
80
ENDCHAR
STARTCHAR asterisk
ENCODING 42
SWIDTH 503 0
DWIDTH 6 0
BBX 4 5 1 3
BITMAP
20
A5
38
A5
20
ENDCHAR
STARTCHAR plus
ENCODING 43
SWIDTH 634 0
DWIDTH 7 0
BBX 5 5 1 1
BITMAP
0800
0800
FFC0
0800
0800
ENDCHAR
STARTCHAR comma
ENCODING 44
SWIDTH 185 0
DWIDTH 2 0
BBX 2 2 0 -1
BITMAP
50
80
ENDCHAR
STARTCHAR hyphen
ENCODING 45
SWIDTH 540 0
DWIDTH 6 0
BBX 4 1 1 3
BITMAP
FF
ENDCHAR
STARTCHAR period
ENCODING 46
SWIDTH 185 0
DWIDTH 2 0
BBX 2 1 0 0
BITMAP
50
ENDCHAR
STARTCHAR slash
ENCODING 47
SWIDTH 500 0
DWIDTH 6 0
BBX 4 8 1 0
BITMAP
02
05
08
14
20
50
80
40
ENDCHAR
STARTCHAR zero
ENCODING 48
SWIDTH 833 0
DWIDTH 9 0
BBX 9 8 0 0
BITMAP
06F400
190A00
200240
500140
500140
200240
190A00
06F400
ENDCHAR
STARTCHAR one
ENCODING 49
SWIDTH 339 0
DWIDTH 4 0
BBX 3 8 0 0
BITMAP
F4
14
14
14
14
14
14
14
ENDCHAR
STARTCHAR two
ENCODING 50
SWIDTH 728 0
DWIDTH 8 0
BBX 8 8 0 0
BITMAP
7FE0
0018
0008
0008
0020
0180
1900
7FFD
ENDCHAR
STARTCHAR three
ENCODING 51
SWIDTH 726 0
DWIDTH 8 0
BBX 8 8 0 0
BITMAP
7FE4
0018
0018
07E0
0018
0009
0018
BFE0
ENDCHAR
STARTCHAR four
ENCODING 52
SWIDTH 769 0
DWIDTH 8 0
BBX 8 8 0 0
BITMAP
0074
0194
0614
1814
2014
BFFF
0014
0014
ENDCHAR
STARTCHAR five
ENCODING 53
SWIDTH 738 0
DWIDTH 8 0
BBX 8 8 0 0
BITMAP
3FFC
2000
2000
3FE4
0019
0005
0019
7FE4
ENDCHAR
STARTCHAR six
ENCODING 54
SWIDTH 772 0
DWIDTH 9 0
BBX 8 8 0 0
BITMAP
06FD
1900
2000
67F8
7406
2002
2406
07F8
ENDCHAR
STARTCHAR seven
ENCODING 55
SWIDTH 669 0
DWIDTH 7 0
BBX 7 8 0 0
BITMAP
FFFC
0014
0020
0050
0080
0200
0600
0800
ENDCHAR
STARTCHAR eight
ENCODING 56
SWIDTH 793 0
DWIDTH 9 0
BBX 8 8 0 0
BITMAP
0BF8
2406
2419
0BF4
251A
5002
6406
1BF8
ENDCHAR
STARTCHAR nine
ENCODING 57
SWIDTH 776 0
DWIDTH 9 0
BBX 8 8 0 0
BITMAP
1BE4
6418
5002
641A
1BE6
0006
0018
3FE0
ENDCHAR
STARTCHAR colon
ENCODING 58
SWIDTH 245 0
DWIDTH 3 0
BBX 1 5 1 0
BITMAP
80
00
00
00
80
ENDCHAR
STARTCHAR semicolon
ENCODING 59
SWIDTH 234 0
DWIDTH 3 0
BBX 2 6 0 -1
BITMAP
20
00
00
00
60
50
ENDCHAR
STARTCHAR less
ENCODING 60
SWIDTH 634 0
DWIDTH 7 0
BBX 5 5 1 1
BITMAP
0180
6A40
D000
6A40
0180
ENDCHAR
STARTCHAR equal
ENCODING 61
SWIDTH 634 0
DWIDTH 7 0
BBX 5 3 1 2
BITMAP
FFC0
0000
FFC0
ENDCHAR
STARTCHAR greater
ENCODING 62
SWIDTH 634 0
DWIDTH 7 0
BBX 5 5 1 1
BITMAP
9000
6A40
01C0
6A40
9000
ENDCHAR
STARTCHAR question
ENCODING 63
SWIDTH 568 0
DWIDTH 6 0
BBX 6 8 0 0
BITMAP
7F40
0090
0050
0180
1A00
1400
0000
1800
ENDCHAR
STARTCHAR at
ENCODING 64
SWIDTH 1016 0
DWIDTH 11 0
BBX 10 8 1 0
BITMAP
06F900
290680
92F890
851850
891480
87EF40
640000
1BF900
ENDCHAR
STARTCHAR A
ENCODING 65
SWIDTH 812 0
DWIDTH 9 0
BBX 9 8 0 0
BITMAP
01C000
026000
022000
080800
080800
2FFE00
200200
900140
ENDCHAR
STARTCHAR B
ENCODING 66
SWIDTH 836 0
DWIDTH 9 0
BBX 8 8 1 0
BITMAP
BFF4
8008
8008
BFF4
8009
8006
8009
BFF8
ENDCHAR
STARTCHAR C
ENCODING 67
SWIDTH 869 0
DWIDTH 10 0
BBX 9 8 0 0
BITMAP
06FE40
190180
200000
600000
600000
200000
190180
06FE40
ENDCHAR
STARTCHAR D
ENCODING 68
SWIDTH 910 0
DWIDTH 10 0
BBX 9 8 1 0
BITMAP
BFE400
800A00
800200
800140
800140
800200
801A00
BFF400
ENDCHAR
STARTCHAR E
ENCODING 69
SWIDTH 754 0
DWIDTH 8 0
BBX 7 8 1 0
BITMAP
BFF4
8000
8000
BFF0
8000
8000
8000
BFF4
ENDCHAR
STARTCHAR F
ENCODING 70
SWIDTH 687 0
DWIDTH 8 0
BBX 6 8 1 0
BITMAP
BFF0
8000
8000
BFE0
8000
8000
8000
8000
ENDCHAR
STARTCHAR G
ENCODING 71
SWIDTH 910 0
DWIDTH 10 0
BBX 9 8 0 0
BITMAP
06FE40
190180
200000
500000
602FC0
200080
190080
06FE80
ENDCHAR
STARTCHAR H
ENCODING 72
SWIDTH 949 0
DWIDTH 10 0
BBX 9 8 1 0
BITMAP
800140
800140
800140
BFFF40
800140
800140
800140
800140
ENDCHAR
STARTCHAR I
ENCODING 73
SWIDTH 287 0
DWIDTH 3 0
BBX 1 8 1 0
BITMAP
80
80
80
80
80
80
80
80
ENDCHAR
STARTCHAR J
ENCODING 74
SWIDTH 590 0
DWIDTH 7 0
BBX 6 8 0 0
BITMAP
0050
0050
0050
0050
0050
0050
01C0
FE40
ENDCHAR
STARTCHAR K
ENCODING 75
SWIDTH 806 0
DWIDTH 9 0
BBX 8 8 1 0
BITMAP
8018
8090
8600
A400
9800
8240
80A0
8019
ENDCHAR
STARTCHAR L
ENCODING 76
SWIDTH 701 0
DWIDTH 8 0
BBX 7 8 1 0
BITMAP
8000
8000
8000
8000
8000
8000
8000
BFF4
ENDCHAR
STARTCHAR M
ENCODING 77
SWIDTH 1139 0
DWIDTH 13 0
BBX 11 8 1 0
BITMAP
900024
A00074
980094
880254
860614
824814
80E414
807014
ENDCHAR
STARTCHAR N
ENCODING 78
SWIDTH 936 0
DWIDTH 10 0
BBX 8 8 1 0
BITMAP
9002
A402
8902
8242
8082
8022
800A
8007
ENDCHAR
STARTCHAR O
ENCODING 79
SWIDTH 983 0
DWIDTH 11 0
BBX 10 8 0 0
BITMAP
06FE40
1901D0
200020
600020
600020
200020
190190
06FE00
ENDCHAR
STARTCHAR P
ENCODING 80
SWIDTH 818 0
DWIDTH 9 0
BBX 8 8 1 0
BITMAP
BFE4
8009
8005
8009
BFF4
8000
8000
8000
ENDCHAR
STARTCHAR Q
ENCODING 81
SWIDTH 983 0
DWIDTH 11 0
BBX 11 8 0 0
BITMAP
06FE40
1901D0
200020
600020
600020
200020
190AD0
06FE68
ENDCHAR
STARTCHAR R
ENCODING 82
SWIDTH 833 0
DWIDTH 9 0
BBX 8 8 1 0
BITMAP
BFE4
8018
8008
8018
BFE4
8020
8018
8005
ENDCHAR
STARTCHAR S
ENCODING 83
SWIDTH 787 0
DWIDTH 9 0
BBX 7 8 1 0
BITMAP
6FF4
9000
8000
2E40
01A4
0008
0018
FFE0
ENDCHAR
STARTCHAR T
ENCODING 84
SWIDTH 708 0
DWIDTH 8 0
BBX 8 8 0 0
BITMAP
BFFE
0140
0140
0140
0140
0140
0140
0140
ENDCHAR
STARTCHAR U
ENCODING 85
SWIDTH 891 0
DWIDTH 10 0
BBX 8 8 1 0
BITMAP
8002
8002
8002
8002
8002
8002
6419
1BE4
ENDCHAR
STARTCHAR V
ENCODING 86
SWIDTH 817 0
DWIDTH 9 0
BBX 9 8 0 0
BITMAP
500140
200200
240600
080800
091800
062000
026000
01D000
ENDCHAR
STARTCHAR W
ENCODING 87
SWIDTH 1266 0
DWIDTH 14 0
BBX 14 8 0 0
BITMAP
500A0050
200A0080
20154080
14208240
08208200
09505500
06802800
02802800
ENDCHAR
STARTCHAR X
ENCODING 88
SWIDTH 821 0
DWIDTH 9 0
BBX 8 8 1 0
BITMAP
8008
2020
1890
0640
0640
1850
6024
8009
ENDCHAR
STARTCHAR Y
ENCODING 89
SWIDTH 763 0
DWIDTH 8 0
BBX 8 8 0 0
BITMAP
6006
1408
0820
0250
0180
0080
0080
0080
ENDCHAR
STARTCHAR Z
ENCODING 90
SWIDTH 728 0
DWIDTH 8 0
BBX 7 8 1 0
BITMAP
FFF0
0050
0140
0200
0800
2000
4000
FFF4
ENDCHAR
STARTCHAR bracketleft
ENCODING 91
SWIDTH 409 0
DWIDTH 5 0
BBX 3 9 1 -1
BITMAP
BC
80
80
80
80
80
80
80
BC
ENDCHAR
STARTCHAR backslash
ENCODING 92
SWIDTH 500 0
DWIDTH 6 0
BBX 5 8 0 0
BITMAP
5000
2000
1400
0800
0500
0200
0140
0080
ENDCHAR
STARTCHAR bracketright
ENCODING 93
SWIDTH 409 0
DWIDTH 5 0
BBX 3 9 0 -1
BITMAP
7C
08
08
08
08
08
08
08
7C
ENDCHAR
STARTCHAR asciicircum
ENCODING 94
SWIDTH 459 0
DWIDTH 5 0
BBX 5 3 0 5
BITMAP
0D00
2600
5140
ENDCHAR
STARTCHAR underscore
ENCODING 95
SWIDTH 500 0
DWIDTH 6 0
BBX 6 1 0 -2
BITMAP
FFE0
ENDCHAR
STARTCHAR grave
ENCODING 96
SWIDTH 527 0
DWIDTH 6 0
BBX 3 2 1 7
BITMAP
90
24
ENDCHAR
STARTCHAR a
ENCODING 97
SWIDTH 888 0
DWIDTH 10 0
BBX 9 8 0 0
BITMAP
2FF900
000640
000080
01AF80
295080
600080
640680
1FE980
ENDCHAR
STARTCHAR b
ENCODING 98
SWIDTH 836 0
DWIDTH 9 0
BBX 8 8 1 0
BITMAP
BFF4
8008
8008
BFF4
8009
8006
8009
BFF8
ENDCHAR
STARTCHAR c
ENCODING 99
SWIDTH 869 0
DWIDTH 10 0
BBX 9 8 0 0
BITMAP
06FE40
190180
200000
600000
600000
200000
190180
06FE40
ENDCHAR
STARTCHAR d
ENCODING 100
SWIDTH 910 0
DWIDTH 10 0
BBX 9 8 1 0
BITMAP
BFE400
800A00
800200
800140
800140
800200
801A00
BFF400
ENDCHAR
STARTCHAR e
ENCODING 101
SWIDTH 910 0
DWIDTH 10 0
BBX 10 8 0 0
BITMAP
06F900
190680
200080
7FFFD0
600000
300000
1D0000
06FF80
ENDCHAR
STARTCHAR f
ENCODING 102
SWIDTH 817 0
DWIDTH 9 0
BBX 8 8 1 0
BITMAP
1FFD
6400
8000
8000
BFFD
8000
8000
8000
ENDCHAR
STARTCHAR g
ENCODING 103
SWIDTH 910 0
DWIDTH 10 0
BBX 9 8 0 0
BITMAP
06FE40
190180
200000
500000
602FC0
200080
190080
06FE80
ENDCHAR
STARTCHAR h
ENCODING 104
SWIDTH 949 0
DWIDTH 10 0
BBX 9 8 1 0
BITMAP
800140
800140
800140
BFFF40
800140
800140
800140
800140
ENDCHAR
STARTCHAR i
ENCODING 105
SWIDTH 287 0
DWIDTH 3 0
BBX 1 8 1 0
BITMAP
80
80
80
80
80
80
80
80
ENDCHAR
STARTCHAR j
ENCODING 106
SWIDTH 590 0
DWIDTH 7 0
BBX 6 8 0 0
BITMAP
0050
0050
0050
0050
0050
0050
01C0
FE40
ENDCHAR
STARTCHAR k
ENCODING 107
SWIDTH 867 0
DWIDTH 10 0
BBX 8 8 1 0
BITMAP
8005
8018
81A0
BF80
81A4
8008
8006
8002
ENDCHAR
STARTCHAR l
ENCODING 108
SWIDTH 709 0
DWIDTH 8 0
BBX 7 8 1 0
BITMAP
8000
8000
8000
8000
8000
8000
9000
2FF8
ENDCHAR
STARTCHAR m
ENCODING 109
SWIDTH 1246 0
DWIDTH 14 0
BBX 12 8 1 0
BITMAP
8BD2F4
A47909
802405
802406
802406
802406
802406
802406
ENDCHAR
STARTCHAR n
ENCODING 110
SWIDTH 933 0
DWIDTH 10 0
BBX 8 8 1 0
BITMAP
86F8
A906
9002
8002
8002
8002
8002
8002
ENDCHAR
STARTCHAR o
ENCODING 111
SWIDTH 983 0
DWIDTH 11 0
BBX 10 8 0 0
BITMAP
06FE40
1901D0
200020
600020
600020
200020
190190
06FE00
ENDCHAR
STARTCHAR p
ENCODING 112
SWIDTH 818 0
DWIDTH 9 0
BBX 8 8 1 0
BITMAP
BFE4
8009
8005
8009
BFF4
8000
8000
8000
ENDCHAR
STARTCHAR q
ENCODING 113
SWIDTH 983 0
DWIDTH 11 0
BBX 11 8 0 0
BITMAP
06FE40
1901D0
200020
600020
600020
200020
1901D0
06FEA8
ENDCHAR
STARTCHAR r
ENCODING 114
SWIDTH 609 0
DWIDTH 7 0
BBX 6 8 1 0
BITMAP
86E0
A900
9000
8000
8000
8000
8000
8000
ENDCHAR
STARTCHAR s
ENCODING 115
SWIDTH 787 0
DWIDTH 9 0
BBX 7 8 1 0
BITMAP
6FF4
9000
8000
2E40
01A4
0008
0018
FFE0
ENDCHAR
STARTCHAR t
ENCODING 116
SWIDTH 708 0
DWIDTH 8 0
BBX 8 8 0 0
BITMAP
BFFE
0140
0140
0140
0140
0140
0140
0140
ENDCHAR
STARTCHAR u
ENCODING 117
SWIDTH 931 0
DWIDTH 10 0
BBX 8 8 1 0
BITMAP
8002
8002
8002
8002
8002
8003
A06F
2F92
ENDCHAR
STARTCHAR v
ENCODING 118
SWIDTH 817 0
DWIDTH 9 0
BBX 9 8 0 0
BITMAP
500140
200200
240600
080800
091800
062000
026000
01D000
ENDCHAR
STARTCHAR w
ENCODING 119
SWIDTH 1266 0
DWIDTH 14 0
BBX 14 8 0 0
BITMAP
500A0050
200A0080
20154080
14208240
08208200
09505500
06802800
02802800
ENDCHAR
STARTCHAR x
ENCODING 120
SWIDTH 821 0
DWIDTH 9 0
BBX 8 8 1 0
BITMAP
8008
2020
1890
0640
0640
1850
6024
8009
ENDCHAR
STARTCHAR y
ENCODING 121
SWIDTH 911 0
DWIDTH 10 0
BBX 8 8 1 0
BITMAP
8002
8002
8006
A02A
2FD2
0002
001D
FFE4
ENDCHAR
STARTCHAR z
ENCODING 122
SWIDTH 728 0
DWIDTH 8 0
BBX 7 8 1 0
BITMAP
FFF0
0050
0140
0200
0800
2000
4000
FFF4
ENDCHAR
STARTCHAR braceleft
ENCODING 123
SWIDTH 386 0
DWIDTH 4 0
BBX 4 9 0 -1
BITMAP
0E
14
14
20
A0
20
14
14
0E
ENDCHAR
STARTCHAR bar
ENCODING 124
SWIDTH 259 0
DWIDTH 3 0
BBX 1 11 1 -3
BITMAP
80
80
80
80
80
80
80
80
80
80
80
ENDCHAR
STARTCHAR braceright
ENCODING 125
SWIDTH 386 0
DWIDTH 4 0
BBX 4 9 0 -1
BITMAP
74
08
08
08
07
08
08
08
74
ENDCHAR
STARTCHAR asciitilde
ENCODING 126
SWIDTH 634 0
DWIDTH 7 0
BBX 5 2 1 3
BITMAP
B440
4B80
ENDCHAR
STARTCHAR nonbreakingspace
ENCODING 160
SWIDTH 375 0
DWIDTH 4 0
BBX 1 1 0 0
BITMAP
00
ENDCHAR
STARTCHAR exclamdown
ENCODING 161
SWIDTH 274 0
DWIDTH 3 0
BBX 1 8 1 0
BITMAP
80
00
40
80
80
80
80
80
ENDCHAR
STARTCHAR cent
ENCODING 162
SWIDTH 736 0
DWIDTH 8 0
BBX 8 9 0 -1
BITMAP
0080
0BFE
2480
6080
5080
6080
2480
0BFE
0080
ENDCHAR
STARTCHAR sterling
ENCODING 163
SWIDTH 792 0
DWIDTH 9 0
BBX 8 8 0 0
BITMAP
01FE
0600
0800
0800
7FF4
0800
1800
7FFF
ENDCHAR
STARTCHAR currency
ENCODING 164
SWIDTH 560 0
DWIDTH 6 0
BBX 4 4 1 2
BITMAP
BE
82
82
BE
ENDCHAR
STARTCHAR yen
ENCODING 165
SWIDTH 811 0
DWIDTH 9 0
BBX 7 8 1 0
BITMAP
8008
2020
1890
FEFC
0200
FFFC
0200
0200
ENDCHAR
STARTCHAR brokenbar
ENCODING 166
SWIDTH 259 0
DWIDTH 3 0
BBX 1 10 1 -2
BITMAP
80
80
80
80
00
00
80
80
80
80
ENDCHAR
STARTCHAR section
ENCODING 167
SWIDTH 500 0
DWIDTH 6 0
BBX 5 8 0 0
BITMAP
2F40
2000
2900
6280
2480
0B40
0140
3F00
ENDCHAR
STARTCHAR dieresis
ENCODING 168
SWIDTH 527 0
DWIDTH 6 0
BBX 4 1 1 7
BITMAP
95
ENDCHAR
STARTCHAR copyright
ENCODING 169
SWIDTH 770 0
DWIDTH 8 0
BBX 8 7 0 0
BITMAP
0BE4
2419
57E2
4802
57E2
2419
0BE4
ENDCHAR
STARTCHAR ordfeminine
ENCODING 170
SWIDTH 497 0
DWIDTH 5 0
BBX 5 6 0 2
BITMAP
7F40
2BC0
9080
7F80
0000
BFC0
ENDCHAR
STARTCHAR guillemotleft
ENCODING 171
SWIDTH 440 0
DWIDTH 5 0
BBX 5 5 0 1
BITMAP
1540
2200
9900
2200
1540
ENDCHAR
STARTCHAR logicalnot
ENCODING 172
SWIDTH 634 0
DWIDTH 7 0
BBX 5 3 1 2
BITMAP
FFC0
0080
0080
ENDCHAR
STARTCHAR uni00AD
ENCODING 173
SWIDTH 540 0
DWIDTH 6 0
BBX 4 1 1 3
BITMAP
FF
ENDCHAR
STARTCHAR registered
ENCODING 174
SWIDTH 600 0
DWIDTH 7 0
BBX 6 5 0 3
BITMAP
1F80
2FA0
4B50
29A0
1F80
ENDCHAR
STARTCHAR macron
ENCODING 175
SWIDTH 527 0
DWIDTH 6 0
BBX 4 1 1 7
BITMAP
BD
ENDCHAR
STARTCHAR degree
ENCODING 176
SWIDTH 373 0
DWIDTH 4 0
BBX 4 3 0 5
BITMAP
2C
55
2C
ENDCHAR
STARTCHAR plusminus
ENCODING 177
SWIDTH 634 0
DWIDTH 7 0
BBX 5 6 1 1
BITMAP
0800
0800
FFC0
0800
0800
FFC0
ENDCHAR
STARTCHAR twosuperior
ENCODING 178
SWIDTH 511 0
DWIDTH 6 0
BBX 5 5 0 3
BITMAP
BF40
0080
0140
1500
BFC0
ENDCHAR
STARTCHAR threesuperior
ENCODING 179
SWIDTH 512 0
DWIDTH 6 0
BBX 5 5 0 3
BITMAP
BF40
0180
1F40
0180
BF40
ENDCHAR
STARTCHAR acute
ENCODING 180
SWIDTH 527 0
DWIDTH 6 0
BBX 3 2 2 7
BITMAP
18
50
ENDCHAR
STARTCHAR micro
ENCODING 181
SWIDTH 705 0
DWIDTH 8 0
BBX 7 7 0 -2
BITMAP
1408
2014
2024
3470
2FA0
5000
8000
ENDCHAR
STARTCHAR paragraph
ENCODING 182
SWIDTH 585 0
DWIDTH 6 0
BBX 5 8 0 0
BITMAP
2FC0
7E40
7E40
2E40
0140
0140
0140
0140
ENDCHAR
STARTCHAR periodcentered
ENCODING 183
SWIDTH 185 0
DWIDTH 2 0
BBX 2 1 0 3
BITMAP
50
ENDCHAR
STARTCHAR cedilla
ENCODING 184
SWIDTH 527 0
DWIDTH 6 0
BBX 3 2 1 -2
BITMAP
1C
7C
ENDCHAR
STARTCHAR onesuperior
ENCODING 185
SWIDTH 261 0
DWIDTH 3 0
BBX 2 5 0 3
BITMAP
F0
20
20
20
20
ENDCHAR
STARTCHAR ordmasculine
ENCODING 186
SWIDTH 520 0
DWIDTH 6 0
BBX 6 6 0 2
BITMAP
2F80
9090
9090
2F80
0000
7FC0
ENDCHAR
STARTCHAR guillemotright
ENCODING 187
SWIDTH 440 0
DWIDTH 5 0
BBX 5 5 0 1
BITMAP
5500
2200
1540
2200
5500
ENDCHAR
STARTCHAR onequarter
ENCODING 188
SWIDTH 857 0
DWIDTH 9 0
BBX 9 8 0 0
BITMAP
B00800
201400
202000
208000
024600
052200
08BFC0
200200
ENDCHAR
STARTCHAR onehalf
ENCODING 189
SWIDTH 937 0
DWIDTH 10 0
BBX 10 8 0 0
BITMAP
B00800
201400
202000
208000
025F80
050050
080140
201FD0
ENDCHAR
STARTCHAR threequarters
ENCODING 190
SWIDTH 978 0
DWIDTH 11 0
BBX 11 8 0 0
BITMAP
7E0140
1E0200
024800
7E1400
005180
008540
021FF4
050040
ENDCHAR
STARTCHAR questiondown
ENCODING 191
SWIDTH 568 0
DWIDTH 6 0
BBX 6 8 0 0
BITMAP
0180
0000
0080
0640
2400
6000
2400
1FE0
ENDCHAR
STARTCHAR Agrave
ENCODING 192
SWIDTH 812 0
DWIDTH 9 0
BBX 9 11 0 0
BITMAP
060000
018000
000000
01C000
026000
022000
080800
080800
2FFE00
200200
900140
ENDCHAR
STARTCHAR Aacute
ENCODING 193
SWIDTH 812 0
DWIDTH 9 0
BBX 9 11 0 0
BITMAP
002400
009000
000000
01C000
026000
022000
080800
080800
2FFE00
200200
900140
ENDCHAR
STARTCHAR Acircumflex
ENCODING 194
SWIDTH 812 0
DWIDTH 9 0
BBX 9 11 0 0
BITMAP
019000
051400
000000
01C000
026000
022000
080800
080800
2FFE00
200200
900140
ENDCHAR
STARTCHAR Atilde
ENCODING 195
SWIDTH 812 0
DWIDTH 9 0
BBX 9 11 0 0
BITMAP
039400
05B000
000000
01C000
026000
022000
080800
080800
2FFE00
200200
900140
ENDCHAR
STARTCHAR Adieresis
ENCODING 196
SWIDTH 812 0
DWIDTH 9 0
BBX 9 10 0 0
BITMAP
022000
000000
01C000
026000
022000
080800
080800
2FFE00
200200
900140
ENDCHAR
STARTCHAR Aring
ENCODING 197
SWIDTH 812 0
DWIDTH 9 0
BBX 9 11 0 0
BITMAP
02E000
02E000
000000
01C000
026000
022000
080800
080800
2FFE00
200200
900140
ENDCHAR
STARTCHAR AE
ENCODING 198
SWIDTH 1172 0
DWIDTH 13 0
BBX 12 8 0 0
BITMAP
007FFF
009800
024800
060FFE
080800
1FF800
200800
900FFF
ENDCHAR
STARTCHAR Ccedilla
ENCODING 199
SWIDTH 869 0
DWIDTH 10 0
BBX 9 10 0 -2
BITMAP
06FE40
190180
200000
600000
600000
200000
190180
06FE40
007400
00F000
ENDCHAR
STARTCHAR Egrave
ENCODING 200
SWIDTH 754 0
DWIDTH 8 0
BBX 7 11 1 0
BITMAP
1400
0600
0000
BFF4
8000
8000
BFF0
8000
8000
8000
BFF4
ENDCHAR
STARTCHAR Eacute
ENCODING 201
SWIDTH 754 0
DWIDTH 8 0
BBX 7 11 1 0
BITMAP
0080
0600
0000
BFF4
8000
8000
BFF0
8000
8000
8000
BFF4
ENDCHAR
STARTCHAR Ecircumflex
ENCODING 202
SWIDTH 754 0
DWIDTH 8 0
BBX 7 11 1 0
BITMAP
0600
1440
0000
BFF4
8000
8000
BFF0
8000
8000
8000
BFF4
ENDCHAR
STARTCHAR Edieresis
ENCODING 203
SWIDTH 754 0
DWIDTH 8 0
BBX 7 10 1 0
BITMAP
1880
0000
BFF4
8000
8000
BFF0
8000
8000
8000
BFF4
ENDCHAR
STARTCHAR Igrave
ENCODING 204
SWIDTH 287 0
DWIDTH 3 0
BBX 2 11 0 0
BITMAP
80
60
00
20
20
20
20
20
20
20
20
ENDCHAR
STARTCHAR Iacute
ENCODING 205
SWIDTH 287 0
DWIDTH 3 0
BBX 3 11 1 0
BITMAP
24
90
00
80
80
80
80
80
80
80
80
ENDCHAR
STARTCHAR Icircumflex
ENCODING 206
SWIDTH 287 0
DWIDTH 3 0
BBX 5 11 -1 0
BITMAP
1900
5140
0000
0800
0800
0800
0800
0800
0800
0800
0800
ENDCHAR
STARTCHAR Idieresis
ENCODING 207
SWIDTH 287 0
DWIDTH 3 0
BBX 3 10 0 0
BITMAP
88
00
20
20
20
20
20
20
20
20
ENDCHAR
STARTCHAR Eth
ENCODING 208
SWIDTH 910 0
DWIDTH 10 0
BBX 10 8 0 0
BITMAP
2FF900
200680
200080
BFC050
200050
200080
200680
2FF900
ENDCHAR
STARTCHAR Ntilde
ENCODING 209
SWIDTH 936 0
DWIDTH 10 0
BBX 8 11 1 0
BITMAP
0760
08A0
0000
9002
A402
8902
8242
8082
8022
800A
8007
ENDCHAR
STARTCHAR Ograve
ENCODING 210
SWIDTH 983 0
DWIDTH 11 0
BBX 10 11 0 0
BITMAP
018000
006000
000000
06FE40
1901D0
200020
600020
600020
200020
190190
06FE00
ENDCHAR
STARTCHAR Oacute
ENCODING 211
SWIDTH 983 0
DWIDTH 11 0
BBX 10 11 0 0
BITMAP
000800
002400
000000
06FE40
1901D0
200020
600020
600020
200020
190190
06FE00
ENDCHAR
STARTCHAR Ocircumflex
ENCODING 212
SWIDTH 983 0
DWIDTH 11 0
BBX 10 11 0 0
BITMAP
006400
014500
000000
06FE40
1901D0
200020
600020
600020
200020
190190
06FE00
ENDCHAR
STARTCHAR Otilde
ENCODING 213
SWIDTH 983 0
DWIDTH 11 0
BBX 10 11 0 0
BITMAP
00D500
016C00
000000
06FE40
1901D0
200020
600020
600020
200020
190190
06FE00
ENDCHAR
STARTCHAR Odieresis
ENCODING 214
SWIDTH 983 0
DWIDTH 11 0
BBX 10 10 0 0
BITMAP
008800
000000
06FE40
1901D0
200020
600020
600020
200020
190190
06FE00
ENDCHAR
STARTCHAR multiply
ENCODING 215
SWIDTH 634 0
DWIDTH 7 0
BBX 5 5 1 1
BITMAP
4140
2600
0C00
2600
4140
ENDCHAR
STARTCHAR Oslash
ENCODING 216
SWIDTH 983 0
DWIDTH 11 0
BBX 10 10 0 -1
BITMAP
000080
06FE40
190690
200820
601420
505020
208020
1A0190
0AFE00
080000
ENDCHAR
STARTCHAR Ugrave
ENCODING 217
SWIDTH 891 0
DWIDTH 10 0
BBX 8 11 1 0
BITMAP
0900
0240
0000
8002
8002
8002
8002
8002
8002
6419
1BE4
ENDCHAR
STARTCHAR Uacute
ENCODING 218
SWIDTH 891 0
DWIDTH 10 0
BBX 8 11 1 0
BITMAP
0060
0140
0000
8002
8002
8002
8002
8002
8002
6419
1BE4
ENDCHAR
STARTCHAR Ucircumflex
ENCODING 219
SWIDTH 891 0
DWIDTH 10 0
BBX 8 11 1 0
BITMAP
0240
0810
0000
8002
8002
8002
8002
8002
8002
6419
1BE4
ENDCHAR
STARTCHAR Udieresis
ENCODING 220
SWIDTH 891 0
DWIDTH 10 0
BBX 8 10 1 0
BITMAP
0950
0000
8002
8002
8002
8002
8002
8002
6419
1BE4
ENDCHAR
STARTCHAR Yacute
ENCODING 221
SWIDTH 763 0
DWIDTH 8 0
BBX 8 11 0 0
BITMAP
0060
0180
0000
6006
1408
0820
0250
0180
0080
0080
0080
ENDCHAR
STARTCHAR Thorn
ENCODING 222
SWIDTH 787 0
DWIDTH 9 0
BBX 7 8 1 0
BITMAP
8000
BFE0
8018
8008
8018
BFE0
8000
8000
ENDCHAR
STARTCHAR germandbls
ENCODING 223
SWIDTH 863 0
DWIDTH 10 0
BBX 8 8 1 0
BITMAP
1FE4
A018
8008
8BF4
8019
8002
8006
9FF8
ENDCHAR
STARTCHAR agrave
ENCODING 224
SWIDTH 888 0
DWIDTH 10 0
BBX 9 11 0 0
BITMAP
024000
009000
000000
2FF900
000640
000080
01AF80
295080
600080
640680
1FE980
ENDCHAR
STARTCHAR aacute
ENCODING 225
SWIDTH 888 0
DWIDTH 10 0
BBX 9 11 0 0
BITMAP
001800
005000
000000
2FF900
000640
000080
01AF80
295080
600080
640680
1FE980
ENDCHAR
STARTCHAR acircumflex
ENCODING 226
SWIDTH 888 0
DWIDTH 10 0
BBX 9 11 0 0
BITMAP
009000
021400
000000
2FF900
000640
000080
01AF80
295080
600080
640680
1FE980
ENDCHAR
STARTCHAR atilde
ENCODING 227
SWIDTH 888 0
DWIDTH 10 0
BBX 9 11 0 0
BITMAP
028800
027400
000000
2FF900
000640
000080
01AF80
295080
600080
640680
1FE980
ENDCHAR
STARTCHAR adieresis
ENCODING 228
SWIDTH 888 0
DWIDTH 10 0
BBX 9 10 0 0
BITMAP
021400
000000
2FF900
000640
000080
01AF80
295080
600080
640680
1FE980
ENDCHAR
STARTCHAR aring
ENCODING 229
SWIDTH 888 0
DWIDTH 10 0
BBX 9 11 0 0
BITMAP
01F000
01F000
000000
2FF900
000640
000080
01AF80
295080
600080
640680
1FE980
ENDCHAR
STARTCHAR ae
ENCODING 230
SWIDTH 1551 0
DWIDTH 17 0
BBX 17 8 0 0
BITMAP
2FF91BF400
0006A40600
0000800140
01AFFFFF40
2950800000
6000900000
6406B40000
1FE91BFF00
ENDCHAR
STARTCHAR ccedilla
ENCODING 231
SWIDTH 869 0
DWIDTH 10 0
BBX 9 10 0 -2
BITMAP
06FE40
190180
200000
600000
600000
200000
190180
06FE40
007400
00F000
ENDCHAR
STARTCHAR egrave
ENCODING 232
SWIDTH 910 0
DWIDTH 10 0
BBX 10 11 0 0
BITMAP
024000
005000
000000
06F900
190680
200080
7FFFD0
600000
300000
1D0000
06FF80
ENDCHAR
STARTCHAR eacute
ENCODING 233
SWIDTH 910 0
DWIDTH 10 0
BBX 10 11 0 0
BITMAP
001800
005000
000000
06F900
190680
200080
7FFFD0
600000
300000
1D0000
06FF80
ENDCHAR
STARTCHAR ecircumflex
ENCODING 234
SWIDTH 910 0
DWIDTH 10 0
BBX 10 11 0 0
BITMAP
00A000
020800
000000
06F900
190680
200080
7FFFD0
600000
300000
1D0000
06FF80
ENDCHAR
STARTCHAR edieresis
ENCODING 235
SWIDTH 910 0
DWIDTH 10 0
BBX 10 10 0 0
BITMAP
015800
000000
06F900
190680
200080
7FFFD0
600000
300000
1D0000
06FF80
ENDCHAR
STARTCHAR igrave
ENCODING 236
SWIDTH 287 0
DWIDTH 3 0
BBX 2 11 0 0
BITMAP
80
60
00
20
20
20
20
20
20
20
20
ENDCHAR
STARTCHAR iacute
ENCODING 237
SWIDTH 287 0
DWIDTH 3 0
BBX 3 11 1 0
BITMAP
24
90
00
80
80
80
80
80
80
80
80
ENDCHAR
STARTCHAR icircumflex
ENCODING 238
SWIDTH 287 0
DWIDTH 3 0
BBX 5 11 -1 0
BITMAP
1900
5140
0000
0800
0800
0800
0800
0800
0800
0800
0800
ENDCHAR
STARTCHAR idieresis
ENCODING 239
SWIDTH 287 0
DWIDTH 3 0
BBX 3 10 0 0
BITMAP
88
00
20
20
20
20
20
20
20
20
ENDCHAR
STARTCHAR eth
ENCODING 240
SWIDTH 910 0
DWIDTH 10 0
BBX 10 8 0 0
BITMAP
2FF900
200680
200080
BFC050
200050
200080
200680
2FF900
ENDCHAR
STARTCHAR ntilde
ENCODING 241
SWIDTH 933 0
DWIDTH 10 0
BBX 8 11 1 0
BITMAP
0760
09E0
0000
86F8
A906
9002
8002
8002
8002
8002
8002
ENDCHAR
STARTCHAR ograve
ENCODING 242
SWIDTH 983 0
DWIDTH 11 0
BBX 10 11 0 0
BITMAP
018000
006000
000000
06FE40
1901D0
200020
600020
600020
200020
190190
06FE00
ENDCHAR
STARTCHAR oacute
ENCODING 243
SWIDTH 983 0
DWIDTH 11 0
BBX 10 11 0 0
BITMAP
000800
002400
000000
06FE40
1901D0
200020
600020
600020
200020
190190
06FE00
ENDCHAR
STARTCHAR ocircumflex
ENCODING 244
SWIDTH 983 0
DWIDTH 11 0
BBX 10 11 0 0
BITMAP
006400
014500
000000
06FE40
1901D0
200020
600020
600020
200020
190190
06FE00
ENDCHAR
STARTCHAR otilde
ENCODING 245
SWIDTH 983 0
DWIDTH 11 0
BBX 10 11 0 0
BITMAP
00D500
016C00
000000
06FE40
1901D0
200020
600020
600020
200020
190190
06FE00
ENDCHAR
STARTCHAR odieresis
ENCODING 246
SWIDTH 983 0
DWIDTH 11 0
BBX 10 10 0 0
BITMAP
008800
000000
06FE40
1901D0
200020
600020
600020
200020
190190
06FE00
ENDCHAR
STARTCHAR divide
ENCODING 247
SWIDTH 634 0
DWIDTH 7 0
BBX 5 5 1 1
BITMAP
0800
0000
FFC0
0000
0800
ENDCHAR
STARTCHAR oslash
ENCODING 248
SWIDTH 983 0
DWIDTH 11 0
BBX 10 10 0 -1
BITMAP
000080
06FE40
190690
200820
601420
505020
208020
1A0190
0AFE00
080000
ENDCHAR
STARTCHAR ugrave
ENCODING 249
SWIDTH 931 0
DWIDTH 10 0
BBX 8 11 1 0
BITMAP
0900
0140
0000
8002
8002
8002
8002
8002
8003
A06F
2F92
ENDCHAR
STARTCHAR uacute
ENCODING 250
SWIDTH 931 0
DWIDTH 10 0
BBX 8 11 1 0
BITMAP
0060
0180
0000
8002
8002
8002
8002
8002
8003
A06F
2F92
ENDCHAR
STARTCHAR ucircumflex
ENCODING 251
SWIDTH 931 0
DWIDTH 10 0
BBX 8 11 1 0
BITMAP
0180
0420
0000
8002
8002
8002
8002
8002
8003
A06F
2F92
ENDCHAR
STARTCHAR udieresis
ENCODING 252
SWIDTH 931 0
DWIDTH 10 0
BBX 8 10 1 0
BITMAP
0560
0000
8002
8002
8002
8002
8002
8003
A06F
2F92
ENDCHAR
STARTCHAR yacute
ENCODING 253
SWIDTH 911 0
DWIDTH 10 0
BBX 8 11 1 0
BITMAP
0060
0140
0000
8002
8002
8006
A02A
2FD2
0002
001D
FFE4
ENDCHAR
STARTCHAR thorn
ENCODING 254
SWIDTH 787 0
DWIDTH 9 0
BBX 7 8 1 0
BITMAP
8000
BFE0
8018
8008
8018
BFE0
8000
8000
ENDCHAR
STARTCHAR ydieresis
ENCODING 255
SWIDTH 911 0
DWIDTH 10 0
BBX 8 10 1 0
BITMAP
0950
0000
8002
8002
8006
A02A
2FD2
0002
001D
FFE4
ENDCHAR
STARTCHAR Amacron
ENCODING 256
SWIDTH 812 0
DWIDTH 9 0
BBX 9 10 0 0
BITMAP
03F000
000000
01C000
026000
022000
080800
080800
2FFE00
200200
900140
ENDCHAR
STARTCHAR amacron
ENCODING 257
SWIDTH 888 0
DWIDTH 10 0
BBX 9 10 0 0
BITMAP
02F400
000000
2FF900
000640
000080
01AF80
295080
600080
640680
1FE980
ENDCHAR
STARTCHAR Abreve
ENCODING 258
SWIDTH 812 0
DWIDTH 9 0
BBX 9 11 0 0
BITMAP
062400
02E000
000000
01C000
026000
022000
080800
080800
2FFE00
200200
900140
ENDCHAR
STARTCHAR abreve
ENCODING 259
SWIDTH 888 0
DWIDTH 10 0
BBX 9 11 0 0
BITMAP
021800
01E000
000000
2FF900
000640
000080
01AF80
295080
600080
640680
1FE980
ENDCHAR
STARTCHAR Aogonek
ENCODING 260
SWIDTH 812 0
DWIDTH 9 0
BBX 10 10 0 -2
BITMAP
01C000
026000
022000
080800
080800
2FFE00
200200
900140
000100
0002D0
ENDCHAR
STARTCHAR aogonek
ENCODING 261
SWIDTH 888 0
DWIDTH 10 0
BBX 10 10 0 -2
BITMAP
2FF900
000640
000080
01AF80
295080
600080
640680
1FE980
000100
0002D0
ENDCHAR
STARTCHAR Cacute
ENCODING 262
SWIDTH 869 0
DWIDTH 10 0
BBX 9 11 0 0
BITMAP
000800
002000
000000
06FE40
190180
200000
600000
600000
200000
190180
06FE40
ENDCHAR
STARTCHAR cacute
ENCODING 263
SWIDTH 869 0
DWIDTH 10 0
BBX 9 11 0 0
BITMAP
000800
002000
000000
06FE40
190180
200000
600000
600000
200000
190180
06FE40
ENDCHAR
STARTCHAR Ccircumflex
ENCODING 264
SWIDTH 869 0
DWIDTH 10 0
BBX 9 11 0 0
BITMAP
006000
014500
000000
06FE40
190180
200000
600000
600000
200000
190180
06FE40
ENDCHAR
STARTCHAR ccircumflex
ENCODING 265
SWIDTH 869 0
DWIDTH 10 0
BBX 9 11 0 0
BITMAP
006000
014500
000000
06FE40
190180
200000
600000
600000
200000
190180
06FE40
ENDCHAR
STARTCHAR Cdotaccent
ENCODING 266
SWIDTH 869 0
DWIDTH 10 0
BBX 9 10 0 0
BITMAP
002000
000000
06FE40
190180
200000
600000
600000
200000
190180
06FE40
ENDCHAR
STARTCHAR cdotaccent
ENCODING 267
SWIDTH 869 0
DWIDTH 10 0
BBX 9 10 0 0
BITMAP
002000
000000
06FE40
190180
200000
600000
600000
200000
190180
06FE40
ENDCHAR
STARTCHAR Ccaron
ENCODING 268
SWIDTH 869 0
DWIDTH 10 0
BBX 9 11 0 0
BITMAP
014500
006000
000000
06FE40
190180
200000
600000
600000
200000
190180
06FE40
ENDCHAR
STARTCHAR ccaron
ENCODING 269
SWIDTH 869 0
DWIDTH 10 0
BBX 9 11 0 0
BITMAP
014500
006400
000000
06FE40
190180
200000
600000
600000
200000
190180
06FE40
ENDCHAR
STARTCHAR Dcaron
ENCODING 270
SWIDTH 910 0
DWIDTH 10 0
BBX 9 11 1 0
BITMAP
144000
060000
000000
BFE400
800A00
800200
800140
800140
800200
801A00
BFF400
ENDCHAR
STARTCHAR dcaron
ENCODING 271
SWIDTH 910 0
DWIDTH 10 0
BBX 9 11 1 0
BITMAP
144000
060000
000000
BFE400
800A00
800200
800140
800140
800200
801A00
BFF400
ENDCHAR
STARTCHAR Dcroat
ENCODING 272
SWIDTH 910 0
DWIDTH 10 0
BBX 10 8 0 0
BITMAP
2FF900
200680
200080
BFC050
200050
200080
200680
2FF900
ENDCHAR
STARTCHAR dcroat
ENCODING 273
SWIDTH 910 0
DWIDTH 10 0
BBX 10 8 0 0
BITMAP
2FF900
200680
200080
BFC050
200050
200080
200680
2FF900
ENDCHAR
STARTCHAR Emacron
ENCODING 274
SWIDTH 754 0
DWIDTH 8 0
BBX 7 10 1 0
BITMAP
1F80
0000
BFF4
8000
8000
BFF0
8000
8000
8000
BFF4
ENDCHAR
STARTCHAR emacron
ENCODING 275
SWIDTH 910 0
DWIDTH 10 0
BBX 10 10 0 0
BITMAP
01F800
000000
06F900
190680
200080
7FFFD0
600000
300000
1D0000
06FF80
ENDCHAR
STARTCHAR Ebreve
ENCODING 276
SWIDTH 754 0
DWIDTH 8 0
BBX 7 11 1 0
BITMAP
1480
0B40
0000
BFF4
8000
8000
BFF0
8000
8000
8000
BFF4
ENDCHAR
STARTCHAR ebreve
ENCODING 277
SWIDTH 910 0
DWIDTH 10 0
BBX 10 11 0 0
BITMAP
024800
01F400
000000
06F900
190680
200080
7FFFD0
600000
300000
1D0000
06FF80
ENDCHAR
STARTCHAR Edotaccent
ENCODING 278
SWIDTH 754 0
DWIDTH 8 0
BBX 7 10 1 0
BITMAP
0200
0000
BFF4
8000
8000
BFF0
8000
8000
8000
BFF4
ENDCHAR
STARTCHAR edotaccent
ENCODING 279
SWIDTH 910 0
DWIDTH 10 0
BBX 10 10 0 0
BITMAP
005000
000000
06F900
190680
200080
7FFFD0
600000
300000
1D0000
06FF80
ENDCHAR
STARTCHAR Eogonek
ENCODING 280
SWIDTH 754 0
DWIDTH 8 0
BBX 7 10 1 -2
BITMAP
BFF4
8000
8000
BFF0
8000
8000
8000
BFF4
0050
00B4
ENDCHAR
STARTCHAR eogonek
ENCODING 281
SWIDTH 910 0
DWIDTH 10 0
BBX 10 10 0 -2
BITMAP
06F900
190680
200080
7FFFD0
600000
300000
1D0000
06FF80
000200
0003C0
ENDCHAR
STARTCHAR Ecaron
ENCODING 282
SWIDTH 754 0
DWIDTH 8 0
BBX 7 11 1 0
BITMAP
1440
0600
0000
BFF4
8000
8000
BFF0
8000
8000
8000
BFF4
ENDCHAR
STARTCHAR ecaron
ENCODING 283
SWIDTH 910 0
DWIDTH 10 0
BBX 10 11 0 0
BITMAP
020800
00A000
000000
06F900
190680
200080
7FFFD0
600000
300000
1D0000
06FF80
ENDCHAR
STARTCHAR Gcircumflex
ENCODING 284
SWIDTH 910 0
DWIDTH 10 0
BBX 9 11 0 0
BITMAP
006400
014500
000000
06FE40
190180
200000
500000
602FC0
200080
190080
06FE80
ENDCHAR
STARTCHAR gcircumflex
ENCODING 285
SWIDTH 910 0
DWIDTH 10 0
BBX 9 11 0 0
BITMAP
006400
014500
000000
06FE40
190180
200000
500000
602FC0
200080
190080
06FE80
ENDCHAR
STARTCHAR Gbreve
ENCODING 286
SWIDTH 910 0
DWIDTH 10 0
BBX 9 11 0 0
BITMAP
018900
00B800
000000
06FE40
190180
200000
500000
602FC0
200080
190080
06FE80
ENDCHAR
STARTCHAR gbreve
ENCODING 287
SWIDTH 910 0
DWIDTH 10 0
BBX 9 11 0 0
BITMAP
018900
00B800
000000
06FE40
190180
200000
500000
602FC0
200080
190080
06FE80
ENDCHAR
STARTCHAR Gdotaccent
ENCODING 288
SWIDTH 910 0
DWIDTH 10 0
BBX 9 10 0 0
BITMAP
002000
000000
06FE40
190180
200000
500000
602FC0
200080
190080
06FE80
ENDCHAR
STARTCHAR gdotaccent
ENCODING 289
SWIDTH 910 0
DWIDTH 10 0
BBX 9 10 0 0
BITMAP
002000
000000
06FE40
190180
200000
500000
602FC0
200080
190080
06FE80
ENDCHAR
STARTCHAR Gcommaaccent
ENCODING 290
SWIDTH 910 0
DWIDTH 10 0
BBX 9 11 0 -3
BITMAP
06FE40
190180
200000
500000
602FC0
200080
190080
06FE80
000000
002000
002000
ENDCHAR
STARTCHAR gcommaaccent
ENCODING 291
SWIDTH 910 0
DWIDTH 10 0
BBX 9 11 0 -3
BITMAP
06FE40
190180
200000
500000
602FC0
200080
190080
06FE80
000000
002000
002000
ENDCHAR
STARTCHAR Hcircumflex
ENCODING 292
SWIDTH 949 0
DWIDTH 10 0
BBX 9 11 1 0
BITMAP
018000
051000
000000
800140
800140
800140
BFFF40
800140
800140
800140
800140
ENDCHAR
STARTCHAR hcircumflex
ENCODING 293
SWIDTH 949 0
DWIDTH 10 0
BBX 9 11 1 0
BITMAP
018000
051000
000000
800140
800140
800140
BFFF40
800140
800140
800140
800140
ENDCHAR
STARTCHAR Hbar
ENCODING 294
SWIDTH 949 0
DWIDTH 10 0
BBX 10 8 0 0
BITMAP
200050
BFFFF0
200050
2FFFD0
200050
200050
200050
200050
ENDCHAR
STARTCHAR hbar
ENCODING 295
SWIDTH 949 0
DWIDTH 10 0
BBX 10 8 0 0
BITMAP
200050
BFFFF0
200050
2FFFD0
200050
200050
200050
200050
ENDCHAR
STARTCHAR Itilde
ENCODING 296
SWIDTH 287 0
DWIDTH 3 0
BBX 5 11 -1 0
BITMAP
3940
5700
0000
0800
0800
0800
0800
0800
0800
0800
0800
ENDCHAR
STARTCHAR itilde
ENCODING 297
SWIDTH 287 0
DWIDTH 3 0
BBX 5 11 -1 0
BITMAP
3940
5700
0000
0800
0800
0800
0800
0800
0800
0800
0800
ENDCHAR
STARTCHAR Imacron
ENCODING 298
SWIDTH 287 0
DWIDTH 3 0
BBX 3 10 0 0
BITMAP
FC
00
20
20
20
20
20
20
20
20
ENDCHAR
STARTCHAR imacron
ENCODING 299
SWIDTH 287 0
DWIDTH 3 0
BBX 3 10 0 0
BITMAP
FC
00
20
20
20
20
20
20
20
20
ENDCHAR
STARTCHAR Ibreve
ENCODING 300
SWIDTH 287 0
DWIDTH 3 0
BBX 4 11 0 0
BITMAP
85
B8
00
20
20
20
20
20
20
20
20
ENDCHAR
STARTCHAR ibreve
ENCODING 301
SWIDTH 287 0
DWIDTH 3 0
BBX 4 11 0 0
BITMAP
85
B8
00
20
20
20
20
20
20
20
20
ENDCHAR
STARTCHAR Iogonek
ENCODING 302
SWIDTH 287 0
DWIDTH 3 0
BBX 3 10 0 -2
BITMAP
20
20
20
20
20
20
20
20
50
B8
ENDCHAR
STARTCHAR iogonek
ENCODING 303
SWIDTH 287 0
DWIDTH 3 0
BBX 3 10 0 -2
BITMAP
20
20
20
20
20
20
20
20
50
B8
ENDCHAR
STARTCHAR Idotaccent
ENCODING 304
SWIDTH 287 0
DWIDTH 3 0
BBX 1 10 1 0
BITMAP
80
00
80
80
80
80
80
80
80
80
ENDCHAR
STARTCHAR dotlessi
ENCODING 305
SWIDTH 287 0
DWIDTH 3 0
BBX 1 8 1 0
BITMAP
80
80
80
80
80
80
80
80
ENDCHAR
STARTCHAR IJ
ENCODING 306
SWIDTH 877 0
DWIDTH 10 0
BBX 8 8 1 0
BITMAP
8005
8005
8005
8005
8005
8005
8009
8FF4
ENDCHAR
STARTCHAR ij
ENCODING 307
SWIDTH 877 0
DWIDTH 10 0
BBX 8 8 1 0
BITMAP
8005
8005
8005
8005
8005
8005
8009
8FF4
ENDCHAR
STARTCHAR Jcircumflex
ENCODING 308
SWIDTH 590 0
DWIDTH 7 0
BBX 7 11 0 0
BITMAP
00A0
0208
0000
0050
0050
0050
0050
0050
0050
01C0
FE40
ENDCHAR
STARTCHAR jcircumflex
ENCODING 309
SWIDTH 590 0
DWIDTH 7 0
BBX 7 11 0 0
BITMAP
00A0
0208
0000
0050
0050
0050
0050
0050
0050
01C0
FE40
ENDCHAR
STARTCHAR Kcommaaccent
ENCODING 310
SWIDTH 806 0
DWIDTH 9 0
BBX 8 11 1 -3
BITMAP
8018
8090
8600
A400
9800
8240
80A0
8019
0000
0200
0200
ENDCHAR
STARTCHAR kcommaaccent
ENCODING 311
SWIDTH 867 0
DWIDTH 10 0
BBX 8 11 1 -3
BITMAP
8005
8018
81A0
BF80
81A4
8008
8006
8002
0000
0200
0200
ENDCHAR
STARTCHAR kgreenlandic
ENCODING 312
SWIDTH 867 0
DWIDTH 10 0
BBX 8 8 1 0
BITMAP
8005
8018
81A0
BF80
81A4
8008
8006
8002
ENDCHAR
STARTCHAR Lacute
ENCODING 313
SWIDTH 701 0
DWIDTH 8 0
BBX 7 11 1 0
BITMAP
2400
9000
0000
8000
8000
8000
8000
8000
8000
8000
BFF4
ENDCHAR
STARTCHAR lacute
ENCODING 314
SWIDTH 709 0
DWIDTH 8 0
BBX 7 11 1 0
BITMAP
2400
9000
0000
8000
8000
8000
8000
8000
8000
9000
2FF8
ENDCHAR
STARTCHAR Lcommaaccent
ENCODING 315
SWIDTH 701 0
DWIDTH 8 0
BBX 7 11 1 -3
BITMAP
8000
8000
8000
8000
8000
8000
8000
BFF4
0000
0200
0100
ENDCHAR
STARTCHAR lcommaaccent
ENCODING 316
SWIDTH 709 0
DWIDTH 8 0
BBX 7 11 1 -3
BITMAP
8000
8000
8000
8000
8000
8000
9000
2FF8
0000
0200
0200
ENDCHAR
STARTCHAR Lcaron
ENCODING 317
SWIDTH 701 0
DWIDTH 8 0
BBX 7 8 1 0
BITMAP
8080
8140
8000
8000
8000
8000
8000
BFF4
ENDCHAR
STARTCHAR lcaron
ENCODING 318
SWIDTH 709 0
DWIDTH 8 0
BBX 7 8 1 0
BITMAP
8080
8040
8000
8000
8000
8000
9000
2FF8
ENDCHAR
STARTCHAR Ldot
ENCODING 319
SWIDTH 701 0
DWIDTH 8 0
BBX 7 8 1 0
BITMAP
8000
8000
8000
8000
80C0
8000
8000
BFF4
ENDCHAR
STARTCHAR ldotaccent
ENCODING 320
SWIDTH 709 0
DWIDTH 8 0
BBX 7 8 1 0
BITMAP
8000
8000
8000
8000
80C0
8000
9000
2FF8
ENDCHAR
STARTCHAR Lslash
ENCODING 321
SWIDTH 701 0
DWIDTH 8 0
BBX 8 8 0 0
BITMAP
2000
2000
2000
2A00
B400
2000
2000
2FFD
ENDCHAR
STARTCHAR lslash
ENCODING 322
SWIDTH 709 0
DWIDTH 8 0
BBX 8 8 0 0
BITMAP
2000
2000
2000
2A00
B400
2000
2400
0BFE
ENDCHAR
STARTCHAR Nacute
ENCODING 323
SWIDTH 936 0
DWIDTH 10 0
BBX 8 11 1 0
BITMAP
0060
0180
0000
9002
A402
8902
8242
8082
8022
800A
8007
ENDCHAR
STARTCHAR nacute
ENCODING 324
SWIDTH 933 0
DWIDTH 10 0
BBX 8 11 1 0
BITMAP
0060
0140
0000
86F8
A906
9002
8002
8002
8002
8002
8002
ENDCHAR
STARTCHAR Ncommaaccent
ENCODING 325
SWIDTH 936 0
DWIDTH 10 0
BBX 8 11 1 -3
BITMAP
9002
A402
8902
8242
8082
8022
800A
8007
0000
0180
0140
ENDCHAR
STARTCHAR ncommaaccent
ENCODING 326
SWIDTH 933 0
DWIDTH 10 0
BBX 8 11 1 -3
BITMAP
86F8
A906
9002
8002
8002
8002
8002
8002
0000
0180
0140
ENDCHAR
STARTCHAR Ncaron
ENCODING 327
SWIDTH 936 0
DWIDTH 10 0
BBX 8 11 1 0
BITMAP
0520
0180
0000
9002
A402
8902
8242
8082
8022
800A
8007
ENDCHAR
STARTCHAR ncaron
ENCODING 328
SWIDTH 933 0
DWIDTH 10 0
BBX 8 11 1 0
BITMAP
0820
0280
0000
86F8
A906
9002
8002
8002
8002
8002
8002
ENDCHAR
STARTCHAR napostrophe
ENCODING 329
SWIDTH 1025 0
DWIDTH 11 0
BBX 10 8 0 0
BITMAP
886F80
8A9060
090020
080020
080020
080020
080020
080020
ENDCHAR
STARTCHAR Eng
ENCODING 330
SWIDTH 936 0
DWIDTH 10 0
BBX 8 8 1 0
BITMAP
A002
9802
8242
8092
8026
8007
8006
82F9
ENDCHAR
STARTCHAR eng
ENCODING 331
SWIDTH 933 0
DWIDTH 10 0
BBX 8 8 1 0
BITMAP
86F8
A906
9002
8002
8002
8002
8006
82F9
ENDCHAR
STARTCHAR Omacron
ENCODING 332
SWIDTH 983 0
DWIDTH 11 0
BBX 10 10 0 0
BITMAP
00FC00
000000
06FE40
1901D0
200020
600020
600020
200020
190190
06FE00
ENDCHAR
STARTCHAR omacron
ENCODING 333
SWIDTH 983 0
DWIDTH 11 0
BBX 10 10 0 0
BITMAP
00FC00
000000
06FE40
1901D0
200020
600020
600020
200020
190190
06FE00
ENDCHAR
STARTCHAR Obreve
ENCODING 334
SWIDTH 983 0
DWIDTH 11 0
BBX 10 11 0 0
BITMAP
014800
00B800
000000
06FE40
1901D0
200020
600020
600020
200020
190190
06FE00
ENDCHAR
STARTCHAR obreve
ENCODING 335
SWIDTH 983 0
DWIDTH 11 0
BBX 10 11 0 0
BITMAP
014800
00B800
000000
06FE40
1901D0
200020
600020
600020
200020
190190
06FE00
ENDCHAR
STARTCHAR Ohungarumlaut
ENCODING 336
SWIDTH 983 0
DWIDTH 11 0
BBX 10 11 0 0
BITMAP
002500
008800
000000
06FE40
1901D0
200020
600020
600020
200020
190190
06FE00
ENDCHAR
STARTCHAR ohungarumlaut
ENCODING 337
SWIDTH 983 0
DWIDTH 11 0
BBX 10 11 0 0
BITMAP
002500
008800
000000
06FE40
1901D0
200020
600020
600020
200020
190190
06FE00
ENDCHAR
STARTCHAR OE
ENCODING 338
SWIDTH 1338 0
DWIDTH 15 0
BBX 14 8 0 0
BITMAP
06FFFFE0
19014000
20014000
5001FFE0
60014000
20014000
19014000
06FFFFF0
ENDCHAR
STARTCHAR oe
ENCODING 339
SWIDTH 1688 0
DWIDTH 19 0
BBX 18 8 0 0
BITMAP
06FE41BE40
1901D90190
2000340020
60002FFFF0
6000240000
2000380000
19019A4000
06FE41BFD0
ENDCHAR
STARTCHAR Racute
ENCODING 340
SWIDTH 833 0
DWIDTH 9 0
BBX 8 11 1 0
BITMAP
0180
0600
0000
BFE4
8018
8008
8018
BFE4
8020
8018
8005
ENDCHAR
STARTCHAR racute
ENCODING 341
SWIDTH 609 0
DWIDTH 7 0
BBX 6 11 1 0
BITMAP
0140
0900
0000
86E0
A900
9000
8000
8000
8000
8000
8000
ENDCHAR
STARTCHAR Rcommaaccent
ENCODING 342
SWIDTH 833 0
DWIDTH 9 0
BBX 8 11 1 -3
BITMAP
BFE4
8018
8008
8018
BFE4
8020
8018
8005
0000
0200
0200
ENDCHAR
STARTCHAR rcommaaccent
ENCODING 343
SWIDTH 609 0
DWIDTH 7 0
BBX 6 11 1 -3
BITMAP
86E0
A900
9000
8000
8000
8000
8000
8000
0000
8000
8000
ENDCHAR
STARTCHAR Rcaron
ENCODING 344
SWIDTH 833 0
DWIDTH 9 0
BBX 8 11 1 0
BITMAP
1480
0600
0000
BFE4
8018
8008
8018
BFE4
8020
8018
8005
ENDCHAR
STARTCHAR rcaron
ENCODING 345
SWIDTH 609 0
DWIDTH 7 0
BBX 6 11 1 0
BITMAP
5140
0900
0000
86E0
A900
9000
8000
8000
8000
8000
8000
ENDCHAR
STARTCHAR Sacute
ENCODING 346
SWIDTH 787 0
DWIDTH 9 0
BBX 7 11 1 0
BITMAP
0080
0600
0000
6FF4
9000
8000
2E40
01A4
0008
0018
FFE0
ENDCHAR
STARTCHAR sacute
ENCODING 347
SWIDTH 787 0
DWIDTH 9 0
BBX 7 11 1 0
BITMAP
0080
0600
0000
6FF4
9000
8000
2E40
01A4
0008
0018
FFE0
ENDCHAR
STARTCHAR Scircumflex
ENCODING 348
SWIDTH 787 0
DWIDTH 9 0
BBX 7 11 1 0
BITMAP
0600
1440
0000
6FF4
9000
8000
2E40
01A4
0008
0018
FFE0
ENDCHAR
STARTCHAR scircumflex
ENCODING 349
SWIDTH 787 0
DWIDTH 9 0
BBX 7 11 1 0
BITMAP
0600
1440
0000
6FF4
9000
8000
2E40
01A4
0008
0018
FFE0
ENDCHAR
STARTCHAR Scedilla
ENCODING 350
SWIDTH 787 0
DWIDTH 9 0
BBX 7 10 1 -2
BITMAP
6FF4
9000
8000
6E40
01A4
0008
0018
FFE0
0340
0F40
ENDCHAR
STARTCHAR scedilla
ENCODING 351
SWIDTH 787 0
DWIDTH 9 0
BBX 7 10 1 -2
BITMAP
6FF4
9000
8000
6E40
01A4
0008
0018
FFE0
0340
0F40
ENDCHAR
STARTCHAR Scaron
ENCODING 352
SWIDTH 787 0
DWIDTH 9 0
BBX 7 11 1 0
BITMAP
1440
0600
0000
6FF4
9000
8000
2E40
01A4
0008
0018
FFE0
ENDCHAR
STARTCHAR scaron
ENCODING 353
SWIDTH 787 0
DWIDTH 9 0
BBX 7 11 1 0
BITMAP
1440
0600
0000
6FF4
9000
8000
2E40
01A4
0008
0018
FFE0
ENDCHAR
STARTCHAR Tcommaaccent
ENCODING 354
SWIDTH 708 0
DWIDTH 8 0
BBX 8 11 0 -3
BITMAP
BFFE
0140
0140
0140
0140
0140
0140
0140
0000
0140
0200
ENDCHAR
STARTCHAR tcommaaccent
ENCODING 355
SWIDTH 708 0
DWIDTH 8 0
BBX 8 11 0 -3
BITMAP
BFFE
0140
0140
0140
0140
0140
0140
0140
0000
0140
0200
ENDCHAR
STARTCHAR Tcaron
ENCODING 356
SWIDTH 708 0
DWIDTH 8 0
BBX 8 11 0 0
BITMAP
0810
0240
0000
BFFE
0140
0140
0140
0140
0140
0140
0140
ENDCHAR
STARTCHAR tcaron
ENCODING 357
SWIDTH 708 0
DWIDTH 8 0
BBX 8 11 0 0
BITMAP
0810
0280
0000
BFFE
0140
0140
0140
0140
0140
0140
0140
ENDCHAR
STARTCHAR Tbar
ENCODING 358
SWIDTH 708 0
DWIDTH 8 0
BBX 8 8 0 0
BITMAP
BFFE
0140
0140
3FF8
0140
0140
0140
0140
ENDCHAR
STARTCHAR tbar
ENCODING 359
SWIDTH 708 0
DWIDTH 8 0
BBX 8 8 0 0
BITMAP
BFFE
0140
0140
3FF8
0140
0140
0140
0140
ENDCHAR
STARTCHAR Utilde
ENCODING 360
SWIDTH 891 0
DWIDTH 10 0
BBX 8 11 1 0
BITMAP
0A60
09D0
0000
8002
8002
8002
8002
8002
8002
6419
1BE4
ENDCHAR
STARTCHAR utilde
ENCODING 361
SWIDTH 931 0
DWIDTH 10 0
BBX 8 11 1 0
BITMAP
0760
08A0
0000
8002
8002
8002
8002
8002
8003
A06F
2F92
ENDCHAR
STARTCHAR Umacron
ENCODING 362
SWIDTH 891 0
DWIDTH 10 0
BBX 8 10 1 0
BITMAP
0BD0
0000
8002
8002
8002
8002
8002
8002
6419
1BE4
ENDCHAR
STARTCHAR umacron
ENCODING 363
SWIDTH 931 0
DWIDTH 10 0
BBX 8 10 1 0
BITMAP
07E0
0000
8002
8002
8002
8002
8002
8003
A06F
2F92
ENDCHAR
STARTCHAR Ubreve
ENCODING 364
SWIDTH 891 0
DWIDTH 10 0
BBX 8 11 1 0
BITMAP
0860
07C0
0000
8002
8002
8002
8002
8002
8002
6419
1BE4
ENDCHAR
STARTCHAR ubreve
ENCODING 365
SWIDTH 931 0
DWIDTH 10 0
BBX 8 11 1 0
BITMAP
0920
03D0
0000
8002
8002
8002
8002
8002
8003
A06F
2F92
ENDCHAR
STARTCHAR Uring
ENCODING 366
SWIDTH 891 0
DWIDTH 10 0
BBX 8 11 1 0
BITMAP
07C0
07C0
0000
8002
8002
8002
8002
8002
8002
6419
1BE4
ENDCHAR
STARTCHAR uring
ENCODING 367
SWIDTH 931 0
DWIDTH 10 0
BBX 8 11 1 0
BITMAP
03D0
03D0
0000
8002
8002
8002
8002
8002
8003
A06F
2F92
ENDCHAR
STARTCHAR Uhungarumlaut
ENCODING 368
SWIDTH 891 0
DWIDTH 10 0
BBX 8 11 1 0
BITMAP
0220
0550
0000
8002
8002
8002
8002
8002
8002
6419
1BE4
ENDCHAR
STARTCHAR uhungarumlaut
ENCODING 369
SWIDTH 931 0
DWIDTH 10 0
BBX 8 11 1 0
BITMAP
0154
0550
0000
8002
8002
8002
8002
8002
8003
A06F
2F92
ENDCHAR
STARTCHAR Uogonek
ENCODING 370
SWIDTH 891 0
DWIDTH 10 0
BBX 8 10 1 -2
BITMAP
8002
8002
8002
8002
8002
8002
A419
1BE4
0200
03D0
ENDCHAR
STARTCHAR uogonek
ENCODING 371
SWIDTH 931 0
DWIDTH 10 0
BBX 9 10 1 -2
BITMAP
800200
800200
800200
800200
800200
800300
A06F00
2F9200
000500
000780
ENDCHAR
STARTCHAR Wcircumflex
ENCODING 372
SWIDTH 1266 0
DWIDTH 14 0
BBX 14 11 0 0
BITMAP
000A0000
00208000
00000000
500A0050
200A0080
20154080
14208240
08208200
09505500
06802800
02802800
ENDCHAR
STARTCHAR wcircumflex
ENCODING 373
SWIDTH 1266 0
DWIDTH 14 0
BBX 14 11 0 0
BITMAP
000A0000
00208000
00000000
500A0050
200A0080
20154080
14208240
08208200
09505500
06802800
02802800
ENDCHAR
STARTCHAR Ycircumflex
ENCODING 374
SWIDTH 763 0
DWIDTH 8 0
BBX 8 11 0 0
BITMAP
0180
0510
0000
6006
1408
0820
0250
0180
0080
0080
0080
ENDCHAR
STARTCHAR ycircumflex
ENCODING 375
SWIDTH 911 0
DWIDTH 10 0
BBX 8 11 1 0
BITMAP
0240
0850
0000
8002
8002
8006
A02A
2FD2
0002
001D
FFE4
ENDCHAR
STARTCHAR Ydieresis
ENCODING 376
SWIDTH 763 0
DWIDTH 8 0
BBX 8 10 0 0
BITMAP
0620
0000
6006
1408
0820
0250
0180
0080
0080
0080
ENDCHAR
STARTCHAR Zacute
ENCODING 377
SWIDTH 728 0
DWIDTH 8 0
BBX 7 11 1 0
BITMAP
0180
0600
0000
FFF0
0050
0140
0200
0800
2000
4000
FFF4
ENDCHAR
STARTCHAR zacute
ENCODING 378
SWIDTH 728 0
DWIDTH 8 0
BBX 7 11 1 0
BITMAP
0180
0600
0000
FFF0
0050
0140
0200
0800
2000
4000
FFF4
ENDCHAR
STARTCHAR Zdotaccent
ENCODING 379
SWIDTH 728 0
DWIDTH 8 0
BBX 7 10 1 0
BITMAP
0500
0000
FFF0
0050
0140
0200
0800
2000
4000
FFF4
ENDCHAR
STARTCHAR zdotaccent
ENCODING 380
SWIDTH 728 0
DWIDTH 8 0
BBX 7 10 1 0
BITMAP
0500
0000
FFF0
0050
0140
0200
0800
2000
4000
FFF4
ENDCHAR
STARTCHAR Zcaron
ENCODING 381
SWIDTH 728 0
DWIDTH 8 0
BBX 7 11 1 0
BITMAP
2080
0A00
0000
FFF0
0050
0140
0200
0800
2000
4000
FFF4
ENDCHAR
STARTCHAR zcaron
ENCODING 382
SWIDTH 728 0
DWIDTH 8 0
BBX 7 11 1 0
BITMAP
2080
0A00
0000
FFF0
0050
0140
0200
0800
2000
4000
FFF4
ENDCHAR
STARTCHAR florin
ENCODING 402
SWIDTH 835 0
DWIDTH 9 0
BBX 9 8 0 0
BITMAP
001FC0
002400
002000
03FC00
008000
008000
024000
BE0000
ENDCHAR
STARTCHAR AEacute
ENCODING 508
SWIDTH 1172 0
DWIDTH 13 0
BBX 12 11 0 0
BITMAP
000060
000180
000000
007FFF
009800
024800
060FFE
080800
1FF800
200800
900FFF
ENDCHAR
STARTCHAR aeacute
ENCODING 509
SWIDTH 1551 0
DWIDTH 17 0
BBX 17 11 0 0
BITMAP
0000140000
0000900000
0000000000
2FF91BF400
0006A40600
0000800140
01AFFFFF40
2950800000
6000900000
6406B40000
1FE91BFF00
ENDCHAR
STARTCHAR Oslashacute
ENCODING 510
SWIDTH 983 0
DWIDTH 11 0
BBX 10 12 0 -1
BITMAP
000900
002400
000080
06FE40
190690
200820
601420
505020
208020
1A0190
0AFE00
080000
ENDCHAR
STARTCHAR oslashacute
ENCODING 511
SWIDTH 983 0
DWIDTH 11 0
BBX 10 12 0 -1
BITMAP
000900
002400
000080
06FE40
190690
200820
601420
505020
208020
1A0190
0AFE00
080000
ENDCHAR
STARTCHAR dotlessj
ENCODING 567
SWIDTH 590 0
DWIDTH 7 0
BBX 6 8 0 0
BITMAP
0050
0050
0050
0050
0050
0050
01C0
FE40
ENDCHAR
STARTCHAR circumflex
ENCODING 710
SWIDTH 527 0
DWIDTH 6 0
BBX 4 2 1 7
BITMAP
24
81
ENDCHAR
STARTCHAR caron
ENCODING 711
SWIDTH 527 0
DWIDTH 6 0
BBX 4 2 1 7
BITMAP
81
28
ENDCHAR
STARTCHAR breve
ENCODING 728
SWIDTH 527 0
DWIDTH 6 0
BBX 4 2 1 7
BITMAP
86
7C
ENDCHAR
STARTCHAR dotaccent
ENCODING 729
SWIDTH 527 0
DWIDTH 6 0
BBX 2 1 2 7
BITMAP
90
ENDCHAR
STARTCHAR ring
ENCODING 730
SWIDTH 527 0
DWIDTH 6 0
BBX 3 2 1 7
BITMAP
7C
7C
ENDCHAR
STARTCHAR ogonek
ENCODING 731
SWIDTH 527 0
DWIDTH 6 0
BBX 3 2 1 -2
BITMAP
10
7C
ENDCHAR
STARTCHAR tilde
ENCODING 732
SWIDTH 527 0
DWIDTH 6 0
BBX 4 2 1 7
BITMAP
A2
9D
ENDCHAR
STARTCHAR hungarumlaut
ENCODING 733
SWIDTH 527 0
DWIDTH 6 0
BBX 4 2 1 7
BITMAP
22
55
ENDCHAR
STARTCHAR commaaccent
ENCODING 806
SWIDTH 527 0
DWIDTH 6 0
BBX 2 2 2 -3
BITMAP
50
80
ENDCHAR
STARTCHAR mu
ENCODING 956
SWIDTH 705 0
DWIDTH 8 0
BBX 7 7 0 -2
BITMAP
1408
2014
2024
3470
2FA0
5000
8000
ENDCHAR
STARTCHAR Wgrave
ENCODING 7808
SWIDTH 1266 0
DWIDTH 14 0
BBX 14 11 0 0
BITMAP
00240000
00090000
00000000
500A0050
200A0080
20154080
14208240
08208200
09505500
06802800
02802800
ENDCHAR
STARTCHAR wgrave
ENCODING 7809
SWIDTH 1266 0
DWIDTH 14 0
BBX 14 11 0 0
BITMAP
00240000
00090000
00000000
500A0050
200A0080
20154080
14208240
08208200
09505500
06802800
02802800
ENDCHAR
STARTCHAR Wacute
ENCODING 7810
SWIDTH 1266 0
DWIDTH 14 0
BBX 14 11 0 0
BITMAP
00018000
00050000
00000000
500A0050
200A0080
20154080
14208240
08208200
09505500
06802800
02802800
ENDCHAR
STARTCHAR wacute
ENCODING 7811
SWIDTH 1266 0
DWIDTH 14 0
BBX 14 11 0 0
BITMAP
00018000
00050000
00000000
500A0050
200A0080
20154080
14208240
08208200
09505500
06802800
02802800
ENDCHAR
STARTCHAR Wdieresis
ENCODING 7812
SWIDTH 1266 0
DWIDTH 14 0
BBX 14 10 0 0
BITMAP
00254000
00000000
500A0050
200A0080
20154080
14208240
08208200
09505500
06802800
02802800
ENDCHAR
STARTCHAR wdieresis
ENCODING 7813
SWIDTH 1266 0
DWIDTH 14 0
BBX 14 10 0 0
BITMAP
00254000
00000000
500A0050
200A0080
20154080
14208240
08208200
09505500
06802800
02802800
ENDCHAR
STARTCHAR Ygrave
ENCODING 7922
SWIDTH 763 0
DWIDTH 8 0
BBX 8 11 0 0
BITMAP
0500
0180
0000
6006
1408
0820
0250
0180
0080
0080
0080
ENDCHAR
STARTCHAR ygrave
ENCODING 7923
SWIDTH 911 0
DWIDTH 10 0
BBX 8 11 1 0
BITMAP
0900
0240
0000
8002
8002
8006
A02A
2FD2
0002
001D
FFE4
ENDCHAR
STARTCHAR endash
ENCODING 8211
SWIDTH 419 0
DWIDTH 5 0
BBX 5 1 0 3
BITMAP
BF40
ENDCHAR
STARTCHAR emdash
ENCODING 8212
SWIDTH 1000 0
DWIDTH 11 0
BBX 11 1 0 3
BITMAP
FFFFFC
ENDCHAR
STARTCHAR quoteleft
ENCODING 8216
SWIDTH 163 0
DWIDTH 2 0
BBX 2 2 0 6
BITMAP
50
90
ENDCHAR
STARTCHAR quoteright
ENCODING 8217
SWIDTH 163 0
DWIDTH 2 0
BBX 2 2 0 6
BITMAP
50
80
ENDCHAR
STARTCHAR quotesinglbase
ENCODING 8218
SWIDTH 163 0
DWIDTH 2 0
BBX 2 2 0 -1
BITMAP
50
80
ENDCHAR
STARTCHAR quotedblleft
ENCODING 8220
SWIDTH 303 0
DWIDTH 3 0
BBX 3 2 0 6
BITMAP
58
98
ENDCHAR
STARTCHAR quotedblright
ENCODING 8221
SWIDTH 303 0
DWIDTH 3 0
BBX 3 2 0 6
BITMAP
58
88
ENDCHAR
STARTCHAR quotedblbase
ENCODING 8222
SWIDTH 303 0
DWIDTH 3 0
BBX 3 2 0 -1
BITMAP
58
88
ENDCHAR
STARTCHAR dagger
ENCODING 8224
SWIDTH 500 0
DWIDTH 6 0
BBX 4 8 1 0
BITMAP
20
20
FE
20
20
20
20
20
ENDCHAR
STARTCHAR daggerdbl
ENCODING 8225
SWIDTH 500 0
DWIDTH 6 0
BBX 4 8 1 0
BITMAP
20
20
FE
20
20
FE
20
20
ENDCHAR
STARTCHAR bullet
ENCODING 8226
SWIDTH 352 0
DWIDTH 4 0
BBX 2 2 1 3
BITMAP
E0
E0
ENDCHAR
STARTCHAR ellipsis
ENCODING 8230
SWIDTH 555 0
DWIDTH 6 0
BBX 6 1 0 0
BITMAP
5660
ENDCHAR
STARTCHAR perthousand
ENCODING 8240
SWIDTH 1401 0
DWIDTH 15 0
BBX 15 8 0 0
BITMAP
2E024000
51850000
51880000
2E200000
005BD2E4
01482608
02082608
080BD2F4
ENDCHAR
STARTCHAR guilsinglleft
ENCODING 8249
SWIDTH 257 0
DWIDTH 3 0
BBX 3 5 0 1
BITMAP
14
20
90
20
14
ENDCHAR
STARTCHAR guilsinglright
ENCODING 8250
SWIDTH 257 0
DWIDTH 3 0
BBX 3 5 0 1
BITMAP
50
20
14
20
50
ENDCHAR
STARTCHAR fraction
ENCODING 8260
SWIDTH 200 0
DWIDTH 2 0
BBX 6 8 -2 0
BITMAP
0020
0050
0180
0200
0800
1400
2000
8000
ENDCHAR
STARTCHAR Euro
ENCODING 8364
SWIDTH 833 0
DWIDTH 9 0
BBX 9 8 0 0
BITMAP
02FD00
090140
140000
BFF400
200000
BFF000
190140
06FD00
ENDCHAR
STARTCHAR trademark
ENCODING 8482
SWIDTH 773 0
DWIDTH 9 0
BBX 8 3 0 5
BITMAP
BE45
1145
1121
ENDCHAR
STARTCHAR partialdiff
ENCODING 8706
SWIDTH 790 0
DWIDTH 9 0
BBX 8 8 0 0
BITMAP
0BF8
000A
0002
0BE6
241B
5002
2418
1BE0
ENDCHAR
STARTCHAR minus
ENCODING 8722
SWIDTH 634 0
DWIDTH 7 0
BBX 5 1 1 3
BITMAP
FFC0
ENDCHAR
STARTCHAR uni2215
ENCODING 8725
SWIDTH 200 0
DWIDTH 2 0
BBX 6 8 -2 0
BITMAP
0020
0050
0180
0200
0800
1400
2000
8000
ENDCHAR
STARTCHAR approxequal
ENCODING 8776
SWIDTH 634 0
DWIDTH 7 0
BBX 5 4 1 2
BITMAP
B440
4B80
B440
4B80
ENDCHAR
STARTCHAR notequal
ENCODING 8800
SWIDTH 634 0
DWIDTH 7 0
BBX 5 7 1 0
BITMAP
0200
0500
FFC0
0800
FFC0
1400
2000
ENDCHAR
STARTCHAR lessequal
ENCODING 8804
SWIDTH 634 0
DWIDTH 7 0
BBX 5 6 1 1
BITMAP
0180
6A40
D000
6A40
0180
FFC0
ENDCHAR
STARTCHAR greaterequal
ENCODING 8805
SWIDTH 634 0
DWIDTH 7 0
BBX 5 6 1 1
BITMAP
9000
6A40
01C0
6A40
9000
FFC0
ENDCHAR
STARTCHAR fi
ENCODING 64257
SWIDTH 1104 0
DWIDTH 12 0
BBX 10 8 1 0
BITMAP
1FFD20
640020
800020
800020
BFFD20
800020
800020
800020
ENDCHAR
STARTCHAR fl
ENCODING 64258
SWIDTH 1527 0
DWIDTH 17 0
BBX 16 8 1 0
BITMAP
1FFD2000
64002000
80002000
80002000
BFFD2000
80002000
80002400
80000BFE
ENDCHAR
STARTCHAR .notdef
ENCODING -1
SWIDTH 1000 0
DWIDTH 11 0
BBX 1 1 0 0
BITMAP
00
ENDCHAR
ENDFONT
